# xmcd
#
# Track frame offsets: 
#        150
#        21076
#        43735
#        73301
#        118137
#        171470
#        221319
#        273144
#
# Disc length: 4426 seconds
#
# Revision: 0
# Processed by: cddbd v1.5.2PL0 Copyright (c) Steve Scherf et al.
# Submitted via: ExactAudioCopyFreeDBPlugin 1.0
#
DISCID=76114808
DTITLE=Hitting The Noot - Sonny Hunt and The Dirty Whit Boys
DYEAR=2011
DGENRE=Blues
TTITLE0=Wild about you
TTITLE1=Cold hearted women
TTITLE2=Going down
TTITLE3=Spanish castle magic
TTITLE4=Little wing
TTITLE5=Cause we ended as lovers
TTITLE6=Just got paid
TTITLE7=Voodoo chile
EXTD=
EXTT0=
EXTT1=
EXTT2=
EXTT3=
EXTT4=
EXTT5=
EXTT6=
EXTT7=
PLAYORDER=
